<?xml version="1.0" encoding="utf-8"?>
<!-- Generator: Adobe Illustrator 15.0.2, SVG Export Plug-In  -->
<!DOCTYPE svg PUBLIC "-//W3C//DTD SVG 1.1//EN" "http://www.w3.org/Graphics/SVG/1.1/DTD/svg11.dtd" [
	<!ENTITY ns_flows "http://ns.adobe.com/Flows/1.0/">
]>
<svg version="1.1"
	 xmlns="http://www.w3.org/2000/svg" xmlns:xlink="http://www.w3.org/1999/xlink" xmlns:a="http://ns.adobe.com/AdobeSVGViewerExtensions/3.0/"
	 x="0px" y="0px" width="600px" height="90px" viewBox="-5.813 -4.604 600 90"
	 overflow="visible" enable-background="new -5.813 -4.604 600 90" xml:space="preserve">
<defs>
</defs>
<path fill="#4A5D75" d="M22.048,36.786v21.592c0,5.712,0,8.34,4.798,8.34c3.199,0,8.683-0.229,8.683-0.229l0.686,13.138
	c0,0-7.654,1.714-11.653,1.714c-13.823,0-17.822-5.255-17.822-21.706V36.786H0V22.963h6.74V6.969h15.308v15.994h14.052v13.823
	H22.048z"/>
<path fill="#4A5D75" d="M49.352,79.97V0H64.66v24.562c0,0,8.796-2.971,14.166-2.971c15.994,0,20.106,10.054,20.106,28.446V79.97
	H83.625V50.038c0-8.568-1.143-14.166-7.997-14.166c-3.77,0-10.967,1.371-10.967,1.371V79.97H49.352z"/>
<path fill="#4A5D75" d="M161.309,66.261l0.229,11.881c0,0-13.138,3.199-23.763,3.199c-17.25,0-24.562-8.568-24.562-29.132
	c0-20.335,8.568-30.617,25.248-30.617c16.793,0,24.905,8.454,24.905,25.704l-1.143,10.739h-33.587
	c0.114,6.512,3.313,9.254,11.539,9.254C149.542,67.289,161.309,66.261,161.309,66.261z M148.285,46.269
	c0-8.111-2.627-11.082-9.825-11.082c-7.312,0-9.825,3.542-9.939,11.082H148.285z"/>
<path fill="#4A5D75" d="M178.215,22.963h15.309v5.369c0,0,6.854-5.026,15.879-6.74v16.451c-10.053,1.941-15.879,4.912-15.879,4.912
	V79.97h-15.309V22.963z"/>
<path fill="#4A5D75" d="M222.769,79.97V22.963h15.194v2.741c0,0,3.77-1.827,7.769-3.084c1.942-0.571,4.113-1.028,5.712-1.028
	c6.397,0,10.853,1.6,13.938,4.684c5.827-2.17,13.367-4.684,19.536-4.684c15.537,0,20.106,9.025,20.106,28.561V79.97h-15.308V56.436
	c0-14.395,0.229-20.563-7.997-20.563c-4.57,0-10.625,2.171-10.625,2.171s0.457,7.883,0.457,12.338V79.97h-15.309v-29.36
	c0-10.282-0.914-14.737-7.997-14.737c-3.77,0-10.167,1.942-10.167,1.942V79.97H222.769z"/>
<path fill="#4A5D75" d="M371.853,51.409c0,17.594-6.397,29.932-26.275,29.932s-26.276-12.338-26.276-29.932
	s6.398-29.817,26.276-29.817S371.853,33.815,371.853,51.409z M356.316,51.409c0-10.511-2.284-15.994-10.738-15.994
	s-10.739,5.483-10.739,15.994c0,10.51,2.285,16.108,10.739,16.108S356.316,61.919,356.316,51.409z"/>
<path fill="#4A5D75" d="M428.747,37.243c0,0-14.166-1.828-20.792-1.828s-7.997,1.371-7.997,4.455c0,2.628,2.171,3.313,10.739,4.685
	c15.194,2.399,19.992,6.74,19.992,18.278c0,13.367-8.797,18.508-23.077,18.508c-8.454,0-21.935-2.742-21.935-2.742l0.457-12.909
	c0,0,14.166,1.828,19.992,1.828c7.312,0,9.254-1.371,9.254-4.342c0-2.513-1.257-3.427-9.254-4.798
	c-14.852-2.514-21.478-5.94-21.478-18.165c0-13.252,10.168-18.621,22.163-18.621c8.226,0,22.163,2.856,22.163,2.856L428.747,37.243z
	"/>
<path fill="#4A5D75" d="M463.248,36.786v21.592c0,5.712,0,8.34,4.798,8.34c3.199,0,8.683-0.229,8.683-0.229l0.686,13.138
	c0,0-7.654,1.714-11.653,1.714c-13.823,0-17.821-5.255-17.821-21.706V36.786h-6.74V22.963h6.74V6.969h15.309v15.994h14.052v13.823
	H463.248z"/>
<path fill="#4A5D75" d="M534.991,62.376c0,4.228,0.457,5.37,3.655,5.941l-0.457,13.023c-9.938,0-12.566-1.485-16.222-3.885
	c0,0-9.597,3.885-17.479,3.885c-11.31,0-17.022-7.312-17.022-18.736c0-12.909,7.312-16.679,19.879-17.593l12.338-0.8v-2.856
	c0-3.084-2.399-5.141-5.712-5.141c-8.454,0-22.163,0.914-22.163,0.914l-0.457-13.023c0,0,15.194-2.514,23.534-2.514
	c12.795,0,20.106,5.026,20.106,19.649V62.376z M509.286,56.321c-3.998,0.229-6.397,1.714-6.397,5.826
	c0,3.999,1.485,6.056,4.685,6.056c4.684,0,12.109-1.714,12.109-1.714V55.864L509.286,56.321z"/>
<path fill="#4A5D75" d="M570.407,36.786v21.592c0,5.712,0,8.34,4.798,8.34c3.199,0,8.683-0.229,8.683-0.229l0.686,13.138
	c0,0-7.654,1.714-11.653,1.714c-13.823,0-17.821-5.255-17.821-21.706V36.786h-6.74V22.963h6.74V6.969h15.309v15.994h14.052v13.823
	H570.407z"/>
</svg>
